<?xml version="1.0" encoding="utf-8"?>
<!-- Svg Vector Icons : http://www.onlinewebfonts.com/icon -->
<!DOCTYPE svg PUBLIC "-//W3C//DTD SVG 1.1//EN" "http://www.w3.org/Graphics/SVG/1.1/DTD/svg11.dtd">
<svg version="1.1" xmlns="http://www.w3.org/2000/svg" xmlns:xlink="http://www.w3.org/1999/xlink" x="0px" y="0px" viewBox="0 0 1000 1000" enable-background="new 0 0 1000 1000" xml:space="preserve">
<metadata> Svg Vector Icons : http://www.onlinewebfonts.com/icon </metadata>
<g><g><path d="M451.7,352.8v-98.9h96.6v98.9H451.7z M500,893.4c107.4,0,199.8-38.7,277.2-116.2c77.4-77.4,116.2-169.9,116.2-277.2c0-107.4-38.7-199.8-116.2-277.2C699.8,145.3,607.4,106.6,500,106.6c-107.4,0-199.8,38.7-277.2,116.2C145.3,300.2,106.6,392.6,106.6,500c0,107.4,38.7,199.8,116.2,277.2C300.2,854.7,392.6,893.4,500,893.4z M500,10c135,0,250.4,47.9,346.2,143.8S990,365,990,500s-47.9,250.4-143.8,346.2S635,990,500,990c-135,0-250.4-47.9-346.2-143.8S10,635,10,500s47.9-250.4,143.8-346.2S365,10,500,10z M451.7,746.2V451.7h96.6v294.5H451.7z"/></g></g>
</svg>