<?xml version="1.0" standalone="no"?>
<!DOCTYPE svg PUBLIC "-//W3C//DTD SVG 20010904//EN"
 "http://www.w3.org/TR/2001/REC-SVG-20010904/DTD/svg10.dtd">
<svg version="1.0" xmlns="http://www.w3.org/2000/svg"
 width="490.000000pt" height="490.000000pt" viewBox="0 0 490.000000 490.000000"
 preserveAspectRatio="xMidYMid meet">
<metadata>
Created by potrace 1.16, written by Peter Selinger 2001-2019
</metadata>
<g transform="translate(0.000000,490.000000) scale(0.100000,-0.100000)"
fill="#000000" stroke="none">
<path d="M1978 4872 c7 -2 12 -10 12 -17 0 -7 6 -15 13 -18 6 -2 8 -8 4 -13
-4 -5 -12 -2 -18 6 -8 13 -10 13 -18 0 -6 -8 -13 -11 -18 -7 -4 5 -1 12 7 17
8 5 11 13 6 17 -5 4 -11 2 -13 -5 -3 -9 -16 -11 -41 -7 -28 5 -33 4 -22 -4 8
-6 24 -11 34 -11 19 0 19 0 0 -19 -10 -10 -21 -14 -22 -9 -2 5 -20 15 -40 24
-34 14 -38 13 -65 -7 -16 -12 -40 -21 -53 -21 -13 0 -21 -5 -18 -10 3 -5 13
-7 23 -3 11 4 13 3 5 -5 -11 -11 -44 -4 -44 10 0 9 -57 6 -67 -3 -3 -4 0 -13
6 -21 9 -11 9 -16 0 -22 -7 -4 -17 0 -24 10 -16 21 -39 12 -54 -21 -10 -22
-10 -25 5 -19 10 4 22 -1 29 -11 8 -10 17 -14 21 -10 5 4 2 12 -6 17 -11 7
-10 9 7 7 12 0 19 -5 16 -10 -3 -5 4 -4 15 2 11 6 29 11 40 11 13 0 19 6 18
17 0 10 7 18 19 20 19 3 19 3 1 -5 -11 -5 -15 -11 -10 -14 13 -8 54 9 54 22 0
6 -6 8 -12 5 -7 -4 -4 0 6 9 10 8 23 13 29 9 6 -3 16 2 24 12 7 11 13 14 13 8
0 -16 -28 -36 -40 -28 -5 3 -10 1 -10 -5 0 -7 13 -10 33 -8 26 2 31 7 29 23
-3 19 -3 19 10 3 11 -15 18 -16 50 -6 21 6 35 14 33 18 -2 4 24 5 59 4 50 -3
63 -1 64 11 1 8 3 22 4 30 1 8 5 12 10 9 5 -3 6 -10 3 -15 -3 -5 1 -6 10 -3
11 5 13 10 5 19 -7 8 -5 12 5 12 18 0 20 -18 3 -35 -9 -9 -8 -12 6 -12 9 0 14
5 11 10 -3 6 -1 10 5 10 6 0 9 4 6 8 -2 4 5 8 17 9 12 0 16 -1 10 -4 -28 -10
-11 -23 27 -21 45 3 52 15 15 24 -14 3 -25 9 -25 13 0 4 -48 7 -107 7 -58 0
-101 -2 -95 -4z"/>
<path d="M3093 4810 c3 -11 1 -20 -3 -20 -5 0 -7 -8 -6 -17 2 -10 7 -17 12
-15 5 2 8 10 6 18 -2 8 2 14 7 14 5 0 8 -11 5 -24 -4 -27 12 -38 47 -31 12 3
27 1 33 -3 6 -4 20 -7 31 -8 11 -1 28 -5 38 -9 10 -4 17 -3 17 4 0 6 -8 11
-17 12 -13 0 -11 3 6 10 13 5 26 7 29 4 3 -3 -1 -5 -9 -5 -10 -1 -9 -3 4 -11
9 -5 17 -16 17 -24 0 -9 6 -12 17 -8 10 4 14 2 10 -4 -8 -13 18 -24 38 -17 21
8 9 24 -13 18 -14 -5 -14 -4 -3 4 15 11 41 5 41 -9 0 -21 -2 -24 -17 -21 -26
6 -5 -15 27 -26 20 -7 30 -8 30 -1 0 6 5 7 10 4 14 -9 12 29 -2 43 -21 21 -32
13 -13 -10 10 -13 2 -6 -19 15 -22 22 -42 34 -49 30 -26 -16 -37 -11 -37 18 0
37 -36 57 -68 40 -27 -14 -54 -15 -32 -1 8 5 11 10 5 11 -61 8 -65 7 -65 -9 0
-13 2 -14 9 -3 7 11 9 11 14 0 4 -10 6 -10 6 -1 1 6 5 12 11 12 5 0 7 -7 3
-16 -5 -14 -2 -16 18 -11 13 3 35 8 49 11 16 4 13 1 -10 -10 -27 -13 -41 -14
-62 -6 -23 8 -30 7 -38 -6 -8 -14 -10 -14 -9 -2 4 42 -1 52 -22 47 -15 -4 -23
0 -26 14 -3 10 -10 19 -15 19 -6 0 -8 -9 -5 -20z"/>
<path d="M1307 4633 c9 -3 10 -10 4 -21 -5 -9 -7 -25 -6 -34 3 -17 -18 -24
-49 -19 -5 1 -6 -5 -3 -12 4 -11 0 -13 -15 -9 -14 3 -16 7 -7 12 6 4 -7 7 -29
7 -22 0 -39 -5 -36 -9 3 -4 1 -8 -5 -8 -5 0 -11 6 -14 13 -2 6 -4 -4 -3 -23 1
-24 -3 -34 -12 -32 -20 4 -67 -37 -68 -59 -1 -11 1 -17 5 -13 3 3 6 9 6 13 0
4 8 15 18 25 9 10 17 12 17 6 0 -6 -7 -13 -15 -16 -8 -4 -13 -10 -10 -14 3 -4
-2 -13 -11 -21 -13 -10 -16 -9 -21 9 -8 30 -19 27 -31 -7 -9 -26 -15 -30 -44
-28 -18 1 -33 -2 -33 -8 0 -15 -15 -35 -25 -35 -5 0 -11 8 -13 18 -4 15 -11
-32 -10 -66 1 -9 -3 -10 -11 -2 -7 5 -16 7 -19 3 -4 -3 -7 -1 -7 5 0 7 -5 12
-12 12 -6 0 -8 -3 -5 -7 4 -3 1 -13 -6 -21 -6 -8 -12 -25 -12 -36 0 -17 -6
-21 -30 -20 -27 2 -44 -9 -45 -28 0 -5 5 -8 11 -8 5 0 8 4 4 9 -3 5 -1 12 4
15 4 3 8 -4 7 -16 0 -12 5 -23 12 -26 9 -3 11 4 8 22 -3 14 0 26 6 26 5 0 8
-7 4 -15 -8 -22 0 -19 34 15 17 17 27 30 23 30 -4 0 15 11 44 24 28 14 65 38
82 54 33 31 39 45 17 36 -8 -3 -17 -1 -20 4 -3 5 6 8 21 6 27 -3 53 9 87 39
11 9 23 17 26 17 4 0 17 9 30 20 13 11 29 20 35 20 7 0 16 7 19 16 5 14 4 15
-8 5 -11 -9 -16 -9 -22 0 -4 7 -3 9 4 5 6 -3 14 -1 17 5 4 5 14 8 22 5 8 -4
11 -2 7 5 -4 7 0 9 14 5 11 -4 26 -1 33 7 15 14 22 17 40 17 6 0 9 7 5 15 -3
9 0 15 10 15 8 0 13 -4 10 -9 -9 -14 15 -7 51 15 34 20 40 29 23 39 -17 10
-51 14 -45 6 3 -5 -2 -11 -10 -14 -9 -4 -12 -1 -9 7 4 9 -4 13 -23 13 -15 0
-22 -2 -16 -4z"/>
<path d="M1931 4495 c-1 -6 -9 -11 -18 -12 -57 -3 -71 -8 -66 -23 3 -11 1 -11
-10 3 -12 15 -19 16 -41 6 -40 -19 -32 -36 14 -29 11 1 12 -1 4 -10 -8 -8 -19
-8 -39 0 -21 8 -36 8 -57 -1 -15 -6 -26 -14 -24 -18 2 -3 -11 -6 -30 -7 -33
-1 -104 -32 -104 -46 0 -3 8 -9 18 -11 9 -3 5 -4 -10 -4 -15 1 -24 5 -22 9 3
4 0 8 -5 8 -6 0 -11 -4 -11 -10 0 -5 -5 -10 -11 -10 -5 0 -7 5 -3 11 4 8 0 8
-15 0 -11 -7 -21 -16 -21 -22 0 -6 -4 -7 -10 -4 -5 3 -10 1 -10 -4 0 -6 -3
-10 -7 -9 -5 1 -18 -4 -30 -12 -21 -14 -21 -15 -5 -34 16 -18 16 -18 -5 -7
-29 15 -34 14 -63 -10 -14 -11 -19 -18 -13 -14 9 4 11 1 7 -9 -10 -26 12 -18
24 9 6 14 17 25 24 25 10 0 10 -2 1 -8 -7 -4 6 -8 30 -9 29 -2 37 1 27 7 -13
8 -13 10 2 10 9 0 20 -4 23 -10 11 -18 22 -11 20 13 -3 29 -1 28 -32 16 -18
-7 -30 -6 -37 1 -8 8 -5 9 9 5 16 -6 17 -5 5 4 -13 9 -12 11 5 12 11 1 27 2
35 3 8 0 15 8 14 16 -1 9 8 15 23 15 12 0 23 -3 23 -6 0 -8 33 -5 48 5 8 4 11
14 8 22 -3 7 0 12 7 10 7 -1 9 -1 4 1 -9 6 1 23 14 23 5 0 9 -7 9 -15 0 -17
16 -20 25 -4 4 6 22 8 46 4 31 -5 39 -4 39 9 0 8 -8 20 -17 25 -10 6 -13 11
-6 11 6 0 15 -4 18 -10 3 -5 11 -10 17 -10 6 0 5 7 -3 18 -11 14 -10 13 9 -2
15 -13 22 -15 22 -6 0 9 3 10 14 1 11 -9 15 -8 21 6 5 10 7 21 7 26 -3 11 13
8 27 -5 11 -11 12 -10 6 0 -6 11 3 12 48 7 54 -7 83 5 54 22 -8 4 -17 15 -20
23 -3 8 -6 10 -6 5z"/>
<path d="M3462 4310 c9 -25 -11 -52 -33 -45 -10 4 -19 2 -19 -3 0 -5 10 -12
23 -16 31 -8 39 -7 33 3 -3 5 2 15 12 22 15 13 16 12 4 -3 -9 -11 -10 -18 -2
-23 5 -3 10 -1 10 4 0 7 7 7 20 -1 15 -9 20 -24 20 -53 0 -29 3 -36 10 -25 9
13 10 13 11 0 0 -10 3 -8 8 5 5 11 4 25 -1 32 -7 9 -4 9 16 0 21 -10 23 -13 8
-19 -13 -5 -14 -7 -2 -7 13 -1 13 -2 0 -11 -11 -7 -6 -9 20 -8 34 3 35 2 35
-36 0 -35 3 -40 25 -42 14 -1 32 -5 41 -8 9 -4 26 1 40 13 l24 19 -24 21 c-29
26 -28 26 -26 -1 2 -13 8 -22 14 -21 17 4 13 -5 -8 -16 -16 -9 -18 -7 -15 21
3 26 -3 37 -38 70 -23 21 -48 38 -55 38 -9 0 -11 5 -7 13 4 6 4 9 -1 5 -4 -4
-14 -3 -22 3 -9 9 -13 8 -13 0 0 -6 5 -11 10 -11 6 0 10 -5 10 -11 0 -8 -5 -8
-15 1 -8 7 -15 19 -15 26 0 8 -4 14 -10 14 -5 0 -7 -8 -4 -17 5 -17 5 -17 -6
0 -6 9 -8 22 -4 29 5 7 0 9 -14 6 -12 -3 -20 -2 -19 4 1 5 -9 17 -22 26 -20
14 -23 14 -19 2z"/>
<path d="M4024 4312 c-6 -4 -10 -16 -8 -27 4 -24 46 -58 55 -43 4 6 10 1 14
-11 5 -16 12 -20 23 -16 26 10 55 15 48 8 -3 -3 -1 -12 5 -20 9 -10 8 -13 -1
-13 -9 0 -10 -3 -1 -13 6 -8 7 -18 3 -22 -4 -5 -1 -5 6 -1 6 4 12 2 12 -3 0
-6 -4 -11 -9 -11 -11 0 -36 30 -25 30 5 0 0 8 -11 17 -16 13 -17 15 -2 10 9
-4 17 -3 17 2 0 16 -13 20 -33 10 -16 -9 -17 -13 -6 -20 8 -4 14 -12 14 -17 0
-5 47 -58 104 -118 58 -59 102 -103 98 -97 -4 6 -4 14 0 16 5 3 9 -8 9 -24 2
-32 27 -58 57 -59 10 0 15 -5 12 -10 -4 -6 -11 -7 -17 -4 -5 4 -2 -5 7 -20 9
-14 22 -23 28 -19 7 4 8 0 3 -12 -5 -13 1 -25 21 -43 22 -18 24 -22 8 -18 -19
6 -19 5 -2 -8 10 -7 17 -18 15 -22 -5 -16 73 -114 85 -107 7 4 6 -1 -2 -10
-11 -14 -11 -20 -1 -32 7 -8 16 -12 21 -9 13 7 6 75 -6 70 -11 -4 -47 18 -46
28 5 44 -1 85 -15 90 -8 3 -12 2 -9 -4 3 -6 2 -10 -3 -10 -18 0 -21 29 -4 33
15 4 15 5 -1 6 -10 0 -15 6 -12 11 4 6 10 8 14 6 3 -3 7 4 7 14 0 15 -3 16
-14 7 -11 -8 -13 -7 -10 5 1 9 -1 17 -7 18 -5 1 -15 6 -22 12 -7 5 -17 7 -23
3 -7 -4 -9 3 -5 23 3 21 1 29 -10 29 -8 0 -12 -4 -9 -9 3 -4 0 -8 -5 -8 -6 0
-11 5 -11 11 0 5 -4 8 -9 5 -5 -4 -7 11 -4 33 6 43 -6 57 -36 42 -14 -8 -22
-7 -32 7 -13 15 -12 16 4 3 10 -8 17 -9 17 -3 0 6 -4 14 -10 17 -6 4 -5 13 3
25 15 26 31 26 17 1 -7 -13 -7 -22 0 -26 5 -3 10 1 10 10 0 9 5 13 10 10 6 -3
10 0 10 7 0 7 -8 18 -18 25 -15 9 -21 7 -30 -8 -7 -11 -23 -19 -40 -19 -23 1
-25 2 -9 11 9 6 14 15 11 21 -4 7 -2 8 5 4 6 -4 9 -12 6 -17 -4 -5 -2 -9 3 -9
6 0 13 7 16 16 3 8 2 13 -3 10 -5 -3 -14 1 -21 8 -11 14 -38 14 -63 0 -9 -6
-9 -5 0 8 7 8 10 18 6 22 -11 10 -12 37 -2 30 5 -3 7 -9 4 -14 -3 -5 4 -8 15
-7 18 1 18 3 -8 24 -15 12 -35 22 -44 23 -13 0 -17 8 -15 33 3 33 2 33 -37 33
-41 -1 -41 -1 -41 36 0 20 -4 40 -9 45 -5 4 -6 3 -2 -4 3 -6 2 -14 -3 -18 -6
-3 -8 -12 -4 -20 3 -8 0 -15 -7 -15 -6 0 -9 4 -6 9 8 12 -23 23 -37 14 -7 -4
-6 1 2 10 15 19 12 30 -5 19z"/>
<path d="M1256 4195 c-32 -29 -46 -48 -41 -57 6 -10 5 -10 -5 -1 -14 13 -40 7
-40 -9 0 -6 6 -8 13 -5 8 3 14 -1 14 -8 0 -11 -5 -11 -20 -3 -14 7 -22 7 -27
-2 -4 -6 -11 -11 -16 -11 -5 1 -9 -2 -9 -6 -1 -18 -17 -32 -30 -26 -8 3 -15 0
-15 -7 0 -6 5 -8 11 -4 7 4 7 -2 -1 -17 -18 -34 -24 -38 -16 -11 4 12 5 22 3
22 -14 0 -78 -32 -74 -37 7 -7 -57 -63 -72 -63 -7 0 -10 -4 -7 -8 7 -11 -11
-37 -26 -37 -7 0 -13 -4 -14 -10 -2 -20 -30 -75 -36 -70 -3 3 -8 -5 -12 -19
-4 -18 -11 -24 -23 -19 -9 4 -14 2 -10 -3 3 -5 -23 -41 -58 -78 -36 -38 -62
-73 -59 -78 3 -4 10 -6 15 -2 5 3 6 11 2 17 -4 8 -1 7 9 -1 16 -13 22 -55 6
-46 -4 3 -4 12 -1 22 5 13 3 14 -7 6 -7 -7 -9 -21 -5 -34 6 -20 8 -20 24 -6
10 9 25 16 34 16 9 0 17 5 17 11 0 6 -9 9 -20 6 -13 -3 -20 0 -20 9 0 9 8 14
18 12 11 -2 17 3 17 17 0 13 -6 19 -17 17 -19 -3 -33 14 -18 23 5 3 10 2 10
-2 0 -13 51 -14 66 -2 10 9 14 9 14 0 0 -6 9 -11 20 -11 22 0 26 10 9 27 -8 8
-6 18 6 37 10 14 13 26 8 26 -16 0 -12 38 5 51 14 11 15 11 5 -1 -17 -18 -16
-27 0 -27 13 0 15 20 6 55 -5 16 47 59 58 48 4 -4 2 -11 -6 -15 -7 -5 -12 -11
-12 -15 1 -3 -2 -5 -6 -3 -5 1 -7 6 -5 11 2 5 -4 3 -13 -4 -20 -17 -17 -19 36
-24 24 -2 36 -2 27 1 -20 5 -25 24 -5 19 6 -1 9 -1 5 1 -5 3 -8 18 -8 34 0 20
4 28 12 23 7 -5 9 -1 6 13 -3 11 1 28 8 38 9 12 14 14 14 5 0 -7 3 -10 8 -6 7
7 8 12 11 38 0 6 4 8 8 5 3 -4 13 -1 21 6 13 9 14 9 8 0 -4 -8 -2 -14 6 -15 7
0 18 -2 23 -3 6 -2 14 -3 19 -4 5 0 1 -10 -9 -21 -10 -11 -13 -20 -8 -20 6 0
13 7 17 15 3 8 17 20 31 25 20 8 25 17 26 47 1 21 1 44 0 50 -1 8 5 10 14 7 8
-3 13 -9 11 -13 -6 -9 56 -8 72 2 7 5 12 4 12 -2 0 -6 5 -11 12 -11 6 0 8 3 5
6 -4 4 3 16 16 26 l22 20 -30 -8 c-27 -6 -29 -5 -17 8 8 10 9 19 3 22 -11 7
-9 24 6 51 11 19 13 19 30 3 9 -10 12 -18 6 -18 -6 0 -13 5 -15 11 -2 7 -9 5
-17 -5 -11 -14 -11 -16 3 -16 11 0 15 -5 10 -12 -6 -10 -4 -10 7 0 7 6 22 12
34 12 18 1 18 2 -7 24 -15 13 -24 27 -21 30 4 3 2 6 -3 6 -5 -1 -31 -20 -58
-45z"/>
<path d="M715 4180 c-3 -11 -4 -24 0 -29 3 -5 1 -12 -5 -16 -6 -4 -8 -11 -4
-16 3 -6 -6 -8 -22 -5 -44 8 -74 -26 -34 -39 11 -4 17 -11 14 -17 -4 -6 -10
-6 -17 1 -14 14 -37 14 -37 0 0 -5 5 -7 12 -3 7 4 8 3 4 -5 -6 -9 -11 -9 -24
1 -13 11 -15 10 -9 -4 4 -11 2 -18 -6 -18 -8 0 -6 -4 3 -10 12 -8 12 -10 1
-10 -8 0 -20 -8 -28 -17 -8 -10 -12 -13 -9 -7 4 8 -3 11 -17 10 -13 0 -24 -6
-24 -13 0 -6 5 -9 11 -7 7 3 11 -10 12 -31 1 -32 -8 -46 -19 -27 -2 4 -2 1 0
-7 2 -9 -2 -11 -14 -6 -46 19 -49 18 -49 -19 1 -20 5 -36 11 -36 5 0 3 -4 -5
-10 -20 -12 -9 -20 19 -13 14 3 20 11 17 20 -3 8 -2 12 3 9 7 -5 51 46 51 60
0 4 12 18 26 31 14 13 23 30 20 38 -3 9 0 12 10 8 8 -3 14 -2 13 3 -3 12 106
124 120 124 6 0 11 9 11 21 0 13 -4 18 -12 13 -7 -4 -8 -3 -4 5 6 9 11 9 21 1
10 -8 15 -8 21 1 7 13 -21 39 -42 39 -7 0 -15 -9 -19 -20z"/>
<path d="M4129 3706 c7 -8 8 -17 3 -20 -5 -3 -7 -18 -4 -32 3 -19 -1 -31 -14
-41 -17 -12 -15 -13 20 -9 25 3 47 0 60 -10 13 -9 15 -14 7 -14 -8 0 -11 -3
-8 -7 4 -3 2 -12 -4 -19 -13 -16 -4 -34 17 -34 8 0 12 5 9 10 -4 6 -11 8 -16
5 -5 -4 -9 -2 -9 3 0 12 56 10 67 -2 4 -5 3 -6 -4 -2 -6 3 -15 2 -18 -4 -4 -6
-3 -10 2 -9 21 4 34 -2 27 -13 -4 -7 -3 -8 4 -4 7 4 12 2 12 -3 0 -6 -10 -10
-22 -8 -18 2 -24 -4 -26 -25 -3 -27 8 -34 41 -29 4 0 7 -8 7 -18 0 -11 6 -21
13 -24 6 -2 9 -8 5 -12 -4 -4 -13 -3 -20 3 -10 8 -13 2 -14 -26 -1 -21 1 -27
3 -14 5 24 23 31 23 8 0 -8 6 -16 13 -19 8 -3 7 -9 -6 -19 -17 -13 -17 -15 10
-28 15 -8 36 -21 46 -29 11 -9 17 -10 17 -3 0 7 4 12 10 12 5 0 6 -7 3 -17 -4
-11 -3 -14 5 -9 7 4 12 3 12 -3 0 -5 -6 -11 -12 -13 -10 -2 -11 -24 -4 -96 l8
-94 27 7 c14 3 31 13 37 21 10 12 12 11 17 -6 3 -14 1 -20 -6 -17 -7 2 -19 1
-28 -4 -19 -9 -17 -55 2 -73 9 -8 10 -8 6 0 -4 7 0 15 9 18 8 3 12 2 9 -3 -3
-5 -1 -12 5 -16 5 -3 10 -1 10 4 0 6 5 11 11 11 5 0 8 -4 5 -9 -4 -5 0 -12 6
-14 7 -3 1 -6 -14 -6 -16 -1 -28 -6 -28 -12 0 -7 10 -9 24 -7 18 4 24 1 24
-11 0 -9 3 -26 5 -38 3 -13 1 -25 -4 -29 -6 -3 -3 -12 8 -21 17 -14 17 -14 -2
-9 -20 6 -20 6 0 -9 23 -18 34 -3 14 21 -9 11 -9 18 -1 26 15 15 16 52 1 42
-7 -4 -9 0 -5 13 3 11 -1 34 -10 52 -9 17 -17 37 -18 44 -1 7 -9 31 -16 55
-12 38 -17 43 -37 39 -19 -3 -21 -2 -12 9 6 8 15 12 19 9 5 -3 7 3 5 12 -2 10
-4 22 -4 27 -1 4 -7 6 -14 3 -8 -3 -14 1 -14 9 0 7 5 10 11 7 6 -4 5 1 -3 10
-7 9 -10 17 -6 17 4 0 2 6 -4 13 -6 8 -8 17 -4 20 3 4 1 7 -5 7 -7 0 -11 3
-11 8 4 22 -3 34 -16 29 -8 -4 -17 -2 -20 3 -3 5 -12 7 -20 3 -19 -7 -19 6 -1
30 9 12 16 14 21 8 3 -6 1 -11 -6 -11 -10 0 -10 -3 -2 -11 6 -6 16 -10 22 -8
15 6 -13 55 -29 51 -10 -2 -11 0 -2 11 9 10 8 18 -3 34 -8 11 -12 23 -8 26 9
10 -19 39 -32 33 -7 -2 -11 5 -10 17 2 25 -54 119 -66 111 -5 -3 -6 1 -3 9 3
8 0 18 -5 22 -6 3 -9 10 -6 15 3 4 -2 11 -11 14 -10 4 -13 2 -8 -6 4 -7 3 -8
-5 -4 -6 4 -9 12 -6 17 3 5 -8 22 -25 39 -31 31 -52 41 -31 16z"/>
<path d="M3660 3655 c-21 -22 -21 -25 -5 -25 17 0 17 -1 -1 -21 -10 -11 -20
-16 -22 -11 -1 5 -14 7 -27 4 -23 -4 -25 -8 -22 -61 3 -66 20 -76 55 -31 16
20 19 31 11 36 -8 5 -9 3 -4 -6 5 -9 4 -11 -4 -6 -9 6 -9 11 -1 21 8 9 8 14
-1 17 -6 2 2 9 17 16 24 10 26 10 14 0 -22 -19 -24 -40 -3 -36 10 2 19 9 19
16 5 42 6 46 11 34 4 -10 8 -10 19 -1 8 6 11 16 7 23 -3 6 -3 8 1 4 5 -4 18
-3 31 2 15 6 29 4 42 -5 11 -8 24 -11 28 -7 5 4 5 2 1 -5 -3 -6 4 -32 16 -57
16 -34 26 -45 39 -41 22 7 36 -13 15 -21 -14 -5 -13 -9 4 -31 11 -14 20 -33
20 -42 0 -10 6 -23 13 -31 10 -12 9 -12 -5 -2 -9 8 -19 9 -22 4 -3 -6 1 -13
10 -16 15 -6 15 -8 -1 -26 -10 -11 -22 -20 -28 -20 -5 0 1 9 14 20 27 22 22
25 -16 8 -27 -12 -30 -19 -15 -34 8 -8 6 -15 -4 -23 -8 -7 -12 -20 -9 -29 6
-14 5 -15 -9 -2 -15 14 -15 17 0 33 15 17 14 17 -4 11 -10 -4 -23 -12 -29 -19
-5 -7 -14 -13 -20 -14 -5 -2 -21 -9 -35 -16 -22 -12 -23 -14 -7 -20 13 -6 15
-11 7 -20 -7 -9 -7 -15 -1 -19 5 -4 12 -2 16 4 3 5 11 10 16 10 6 0 7 -4 4
-10 -3 -5 2 -10 12 -10 23 0 26 40 4 57 -14 11 -14 12 0 13 9 0 25 -17 35 -37
l19 -38 5 45 c4 37 9 45 25 45 11 0 26 4 34 10 11 7 13 7 7 -2 -5 -9 -1 -13
12 -13 16 0 20 10 26 61 10 99 9 102 -18 97 -18 -4 -23 -1 -18 10 4 11 1 13
-7 7 -10 -6 -11 -3 -2 13 16 30 14 36 -6 21 -16 -13 -17 -12 -4 4 7 9 10 17 5
17 -5 0 -3 4 5 9 19 12 6 42 -15 34 -12 -4 -15 -2 -12 8 3 8 11 13 17 12 6 -2
11 2 11 7 0 6 -4 10 -9 10 -5 0 -17 3 -26 6 -9 4 -15 3 -13 -2 2 -5 0 -10 -4
-11 -9 -3 -9 -3 -1 27 3 11 9 20 14 20 5 0 9 7 9 15 0 8 -4 15 -10 15 -5 0
-10 -7 -10 -15 0 -8 -7 -15 -16 -15 -10 0 -14 -6 -10 -15 3 -8 1 -15 -4 -15
-11 0 -13 23 -3 34 4 3 7 15 8 25 1 16 -7 18 -71 18 -55 0 -71 -4 -67 -14 3
-7 10 -10 17 -5 15 10 66 10 66 0 0 -4 -10 -8 -22 -9 -13 -1 -35 -2 -49 -3
-18 -2 -26 2 -25 12 2 25 -19 24 -44 -3z"/>
<path d="M1656 3645 c-16 -13 -36 -21 -44 -17 -8 3 -21 -3 -29 -14 -14 -19
-17 -21 -53 -23 -11 0 -20 -6 -20 -12 0 -6 7 -9 15 -6 14 6 28 -7 31 -31 1 -6
-2 -10 -7 -6 -5 3 -7 10 -4 15 4 5 -5 9 -19 9 -27 0 -43 -15 -26 -25 19 -12
10 -26 -12 -21 -13 3 -17 3 -10 0 20 -9 14 -21 -10 -20 -18 1 -25 -7 -33 -32
-5 -18 -14 -31 -20 -28 -5 2 -17 0 -26 -5 -21 -11 -68 34 -48 46 7 5 10 4 5
-3 -3 -6 2 -16 13 -21 16 -9 18 -8 14 9 -3 11 -9 23 -14 25 -4 3 -6 12 -2 20
3 10 -2 15 -16 15 -12 0 -21 -4 -21 -10 0 -5 8 -7 18 -3 14 5 15 3 5 -7 -10
-11 -15 -11 -29 1 -16 13 -17 12 -11 -6 7 -20 7 -20 -8 -1 -8 11 -17 17 -20
14 -10 -9 26 -39 38 -31 6 4 8 0 4 -10 -3 -10 -2 -17 4 -17 6 0 7 -5 3 -12 -4
-7 -3 -8 4 -4 7 4 12 2 12 -3 0 -6 6 -10 13 -8 6 1 11 -3 10 -10 -1 -6 4 -14
12 -17 8 -3 15 -1 15 5 0 6 6 6 18 0 9 -5 22 -9 27 -9 15 -1 55 39 55 54 0 7
9 18 20 24 21 11 27 30 9 30 -5 0 -7 -5 -3 -12 5 -7 3 -8 -5 -4 -9 6 -8 13 5
27 19 21 29 25 18 8 -5 -8 -1 -8 14 0 14 7 19 18 17 32 -3 15 0 19 10 15 8 -3
24 7 37 23 18 21 33 27 64 28 l41 0 2 -51 c1 -28 6 -55 10 -59 5 -5 7 -15 5
-21 -8 -21 72 -15 85 6 9 14 8 17 -1 16 -7 -2 -16 -7 -20 -12 -8 -12 -38 12
-38 31 0 8 4 12 8 9 4 -2 8 4 8 14 0 14 -3 16 -13 8 -7 -6 -13 -22 -13 -36 0
-35 -13 -19 -16 20 -2 20 0 27 5 19 6 -9 11 -10 15 -2 10 15 -3 33 -16 25 -7
-5 -8 -2 -4 5 5 7 14 10 22 7 18 -7 18 2 -1 20 -8 9 -19 13 -24 9 -5 -3 -12
-1 -16 5 -4 6 -10 8 -14 6 -4 -3 -13 0 -21 5 -13 9 -13 10 0 8 8 -1 24 2 34 6
13 6 21 4 24 -3 2 -7 9 -12 15 -12 6 0 3 8 -6 17 -14 14 -21 15 -36 6 -11 -7
-21 -8 -23 -3 -2 4 -16 -2 -32 -15z"/>
<path d="M1106 3592 c-4 -7 -2 -12 5 -12 8 0 9 -3 0 -13 -6 -8 -7 -17 -3 -22
4 -4 -2 -3 -14 3 -24 13 -67 5 -58 -10 4 -6 -2 -7 -16 -3 -17 6 -21 4 -14 -6
5 -9 -2 -7 -19 4 -39 25 -74 12 -68 -25 0 -5 -4 -8 -10 -8 -5 0 -8 -4 -5 -9 3
-5 -1 -11 -9 -15 -8 -3 -15 -13 -15 -22 0 -11 5 -14 16 -10 12 5 15 2 10 -10
-4 -11 -2 -15 8 -11 10 4 13 1 9 -9 -3 -8 1 -14 8 -15 8 0 3 -5 -10 -10 l-24
-9 24 -23 c23 -21 24 -21 32 -3 12 30 34 2 32 -40 -2 -23 1 -32 7 -26 17 17
47 1 53 -29 4 -16 11 -26 16 -23 6 3 8 13 4 23 -5 13 -4 14 7 3 10 -10 10 -17
0 -32 -10 -16 -9 -18 5 -13 12 5 14 3 8 -8 -5 -8 1 -6 13 5 12 10 18 24 14 30
-7 11 -8 16 -11 35 0 5 -12 8 -25 5 -13 -2 -29 2 -36 11 -9 10 -9 15 -1 15 6
0 11 -4 11 -10 0 -5 5 -10 10 -10 21 0 9 20 -15 26 -14 3 -22 10 -19 15 3 5
-3 13 -14 17 -21 8 -62 53 -81 89 -10 19 -8 24 9 33 11 6 20 20 20 30 0 11 5
20 11 20 5 0 7 -5 3 -11 -4 -8 1 -9 17 -3 13 4 38 7 54 6 17 -1 46 7 65 19 39
24 119 32 127 13 7 -19 61 -35 70 -21 3 6 2 12 -4 14 -7 3 -9 15 -7 29 l5 25
-23 -20 c-32 -31 -46 -26 -17 6 13 15 16 21 6 13 -23 -17 -107 -26 -107 -11 0
6 12 8 29 5 16 -3 31 -2 34 3 7 10 -73 11 -90 0 -6 -4 -13 -2 -15 5 -3 9 -6 9
-12 0z"/>
<path d="M2973 3414 c-17 -17 -16 -24 2 -24 8 0 15 5 15 12 0 6 3 8 6 5 4 -4
1 -13 -6 -22 -7 -8 -10 -16 -6 -16 24 -5 33 -4 44 5 11 8 12 3 7 -25 -5 -26
-2 -39 9 -48 8 -7 12 -19 9 -27 -4 -10 2 -17 16 -21 11 -3 21 -10 21 -15 0 -6
-7 -7 -16 -4 -12 4 -15 2 -10 -9 3 -8 1 -15 -4 -15 -6 0 -10 6 -11 13 0 6 -4
3 -9 -8 -7 -17 -9 -17 -9 -2 -1 25 -21 21 -22 -5 -1 -22 -1 -22 -9 2 -8 24 -8
24 -9 3 -1 -13 -7 -23 -16 -23 -8 0 -15 -6 -15 -14 0 -8 -6 -17 -12 -19 -10
-4 -10 -7 0 -15 7 -5 15 -28 17 -52 2 -24 8 -46 13 -49 5 -3 8 -16 7 -28 -1
-13 3 -19 8 -16 7 4 8 -1 4 -13 -7 -18 -6 -18 7 -1 9 11 16 14 19 7 3 -6 4 -5
2 2 -1 7 -8 12 -14 10 -6 -1 -12 4 -12 10 -1 15 -5 31 -8 38 -8 18 -8 41 1 47
7 3 8 1 4 -5 -4 -7 -1 -12 6 -12 9 0 9 -3 -2 -10 -8 -5 -12 -10 -7 -11 4 -1
10 -2 15 -3 4 -1 13 -5 20 -9 19 -13 14 1 -13 37 -14 18 -25 38 -25 44 0 7 -7
12 -15 12 -8 0 -15 5 -15 10 0 6 8 10 17 10 9 0 24 7 34 16 9 8 36 17 59 19
27 3 48 12 60 27 15 18 22 20 28 10 12 -18 42 11 42 41 0 17 -2 19 -9 7 -6 -8
-8 -17 -5 -21 6 -10 -30 -5 -37 5 -4 5 -12 -1 -18 -13 -7 -11 -17 -21 -23 -21
-9 0 -9 3 0 12 7 7 12 19 12 27 0 11 -4 10 -16 -5 -13 -16 -15 -16 -10 -1 3 9
1 17 -4 17 -6 0 -10 -4 -10 -10 0 -24 -15 -7 -17 18 -2 26 0 28 29 24 20 -3
29 -1 24 6 -3 6 -2 13 3 16 10 7 9 -13 -2 -31 -4 -6 -2 -15 5 -20 19 -11 58
-12 58 0 0 5 -7 6 -16 3 -10 -4 -14 -2 -11 6 2 7 11 12 18 10 8 -1 1 9 -15 23
-28 26 -63 30 -58 7 3 -17 -13 -15 -28 3 -11 13 -10 14 4 9 12 -5 15 -2 10 10
-3 8 -9 14 -14 13 -4 -1 -21 12 -37 28 -35 35 -44 38 -60 19z"/>
<path d="M3700 3215 c0 -8 -3 -14 -7 -13 -20 5 -50 -15 -67 -43 -17 -30 -18
-32 -2 -41 13 -7 14 -13 6 -23 -8 -9 -7 -17 4 -28 8 -8 12 -17 9 -21 -3 -3 2
-15 12 -26 10 -11 15 -20 12 -20 -3 0 3 -19 13 -42 26 -57 25 -80 -5 -108 -21
-20 -35 -23 -87 -22 -38 0 -73 -5 -91 -15 -23 -12 -35 -12 -54 -4 -29 13 -36
14 -29 2 5 -8 -3 -8 -34 -1 -3 0 3 7 13 14 16 12 15 52 -2 42 -3 -2 -15 2 -26
11 -20 15 -20 15 0 11 18 -3 20 2 17 41 -4 57 -16 72 -56 67 -55 -7 -66 -15
-56 -42 10 -26 -3 -32 -30 -13 -13 9 -12 10 3 5 9 -3 17 -1 17 4 0 13 -27 13
-35 0 -4 -6 -10 -8 -15 -5 -5 3 -21 0 -36 -8 -22 -12 -24 -15 -10 -20 9 -4 15
-3 12 2 -3 5 3 11 14 14 11 3 20 1 20 -4 0 -5 -6 -9 -12 -9 -21 0 27 -29 56
-34 18 -3 29 0 33 10 3 8 12 13 20 10 8 -3 24 -1 35 5 15 8 23 8 32 -2 8 -9 8
-10 -1 -5 -7 4 -19 1 -27 -6 -11 -11 -10 -16 8 -32 14 -13 17 -20 9 -23 -7 -3
-13 -11 -13 -18 0 -7 -3 -15 -7 -18 -5 -2 -3 -2 4 -1 7 2 19 -4 28 -12 11 -11
29 -15 55 -12 28 2 40 0 40 -9 0 -8 12 -13 29 -13 20 0 31 -6 34 -17 4 -14 5
-12 6 5 1 15 -5 22 -17 22 -24 0 -32 8 -25 27 4 10 8 11 13 3 4 -6 39 -13 79
-16 66 -3 72 -2 87 21 9 13 13 29 10 34 -4 5 -2 12 3 15 15 9 25 -14 12 -27
-18 -18 -13 -25 13 -20 29 6 43 52 20 69 -20 16 -17 23 8 16 18 -4 20 -2 14
14 -10 22 -13 45 -15 97 -1 26 -6 37 -16 37 -19 0 -21 -76 -2 -83 6 -2 10 -7
7 -10 -3 -3 -16 3 -30 15 -14 11 -19 17 -12 13 8 -4 12 3 12 24 0 21 -4 29
-13 25 -18 -6 -42 22 -27 31 5 3 10 -2 10 -11 0 -14 3 -15 12 -6 14 14 19 74
5 65 -5 -3 -6 4 -2 18 7 21 6 22 -8 10 -14 -11 -18 -11 -23 3 -5 14 -9 14 -23
4 -10 -8 -10 -5 3 10 18 21 21 21 44 6 23 -15 25 -15 19 0 -7 19 4 21 21 4 8
-8 14 -5 22 16 12 33 13 39 1 32 -5 -3 -11 1 -15 9 -7 19 -26 19 -26 0z"/>
<path d="M4793 3154 c-3 -9 -1 -19 4 -23 5 -3 9 -16 8 -28 -1 -12 2 -20 7 -17
4 3 8 0 8 -5 0 -17 -20 -13 -25 4 -3 8 -8 23 -12 33 -3 9 -5 23 -4 30 1 6 -3
12 -8 12 -20 0 -21 -20 -5 -52 10 -18 18 -46 18 -63 1 -20 6 -29 15 -27 11 2
12 0 3 -11 -7 -8 -9 -17 -5 -20 3 -4 9 -46 13 -94 9 -108 23 -143 54 -135 20
5 20 5 4 -12 -16 -15 -18 -47 -17 -341 0 -202 -4 -332 -10 -343 -6 -11 -7 -22
-4 -26 3 -3 2 -6 -4 -6 -5 0 -10 -6 -11 -12 -23 -157 -40 -245 -54 -271 -13
-27 -1 -34 18 -11 14 18 15 18 4 -3 -6 -13 -17 -23 -25 -23 -8 0 -17 -12 -20
-27 -4 -16 -15 -48 -26 -73 -19 -42 -19 -47 -4 -82 8 -21 17 -38 19 -38 4 0 1
27 -4 40 -1 3 -2 8 -1 13 0 4 -4 7 -10 7 -6 0 -7 5 -2 13 7 11 9 16 12 35 0 4
10 8 21 9 19 2 19 2 0 -19 -22 -24 -21 -61 2 -66 16 -3 28 25 28 67 0 17 4 22
16 17 10 -4 14 -1 11 6 -2 7 -12 12 -21 12 -9 -1 -16 4 -16 12 0 8 7 14 15 14
18 0 39 36 25 45 -9 6 -14 -1 -11 -17 0 -5 -4 -8 -9 -8 -6 0 -10 5 -10 11 0 5
-4 7 -10 4 -5 -3 -10 -1 -10 5 0 7 7 10 15 7 13 -6 29 8 30 25 0 3 3 9 6 13 4
3 6 -5 5 -17 -1 -28 27 -32 32 -4 3 12 -5 27 -19 37 l-24 18 23 -6 c20 -5 22
-2 22 30 0 19 3 42 6 50 3 8 -2 21 -11 30 -12 12 -13 21 -4 40 8 17 8 35 0 62
-9 32 -8 38 8 42 10 2 23 17 29 31 10 25 10 24 5 -10 -3 -21 -1 -38 3 -38 5 0
9 20 10 45 1 47 -4 53 -25 33 -10 -11 -11 -10 -6 5 4 9 15 17 24 18 10 0 11 2
4 6 -7 2 -13 9 -13 14 0 6 4 8 8 5 4 -2 8 4 8 15 0 10 -4 19 -8 19 -4 0 -9
109 -11 243 -1 133 -6 253 -10 267 -7 24 -7 24 4 3 14 -27 35 -31 24 -5 -4 9
-9 26 -12 37 -4 16 -3 17 5 5 8 -10 10 0 8 38 -2 53 -9 71 -21 53 -3 -6 0 -11
7 -11 9 0 9 -3 -2 -10 -20 -13 -30 -12 -30 1 0 5 3 8 8 6 4 -3 7 11 6 31 -1
25 -6 38 -17 40 -8 2 -18 10 -21 18 -4 10 2 14 22 15 l27 1 -30 13 -30 14 45
1 45 2 -35 11 -35 11 33 4 c28 3 31 6 22 23 -6 10 -18 19 -27 19 -13 0 -13 -3
-3 -15 8 -10 9 -15 2 -15 -6 0 -16 17 -21 37 -11 39 -6 57 9 33 15 -24 20 -5
8 28 -7 18 -18 32 -25 32 -13 0 -17 12 -14 38 1 6 -3 12 -10 12 -8 0 -8 4 1
15 9 11 9 15 1 15 -6 0 -14 -7 -18 -16z"/>
<path d="M391 3008 c-4 -13 -7 -40 -5 -60 2 -21 -1 -38 -7 -38 -6 0 -7 5 -4
10 3 6 2 10 -4 10 -5 0 -8 -25 -7 -57 1 -44 -3 -63 -16 -77 -11 -12 -16 -27
-12 -39 4 -13 2 -17 -5 -13 -8 5 -11 -83 -11 -318 0 -209 4 -327 10 -331 6 -4
8 -10 5 -15 -3 -4 2 -11 11 -14 8 -3 13 -10 9 -15 -3 -5 -2 -12 3 -15 5 -3 7
-30 4 -60 -3 -46 -1 -56 11 -56 9 0 19 -4 22 -10 3 -5 0 -8 -7 -7 -7 2 -10 2
-5 0 4 -3 5 -8 2 -13 -3 -5 0 -21 6 -37 7 -15 13 -32 13 -38 3 -24 18 -55 27
-55 6 0 8 -4 4 -9 -3 -5 0 -13 6 -17 8 -5 9 -3 4 6 -5 9 -4 11 4 6 7 -5 8 -13
2 -23 -9 -18 -3 -53 10 -53 4 0 13 9 19 20 6 11 8 20 4 20 -3 0 -1 6 5 14 6 7
8 21 5 31 -5 12 -9 13 -14 5 -4 -7 -13 -9 -19 -5 -9 5 -9 10 -1 20 8 10 8 15
-1 20 -6 4 -15 1 -20 -6 -6 -9 -8 -4 -5 16 2 17 1 24 -1 18 -8 -23 -22 -13
-17 12 3 17 -1 27 -11 31 -8 3 -12 10 -9 15 3 5 10 6 16 3 7 -5 8 -2 3 6 -11
18 -13 80 -3 80 4 0 8 5 8 11 0 5 -3 8 -7 6 -5 -3 -16 3 -25 12 -16 16 -16 17
2 17 10 0 16 -5 13 -10 -3 -5 -1 -6 5 -2 18 11 14 29 -4 22 -10 -4 -13 -2 -8
6 5 7 3 8 -6 3 -9 -5 -11 -4 -6 3 4 7 2 10 -6 9 -7 -2 -10 -2 -5 0 4 3 5 9 2
14 -3 4 1 19 10 33 18 27 6 43 -22 32 -9 -4 -20 -1 -25 6 -12 20 -9 27 11 21
28 -7 34 13 17 49 -23 45 -24 438 -1 438 20 0 20 68 0 94 -8 11 -15 25 -15 30
0 6 4 5 8 -2 7 -9 13 -8 27 8 10 11 13 20 7 20 -6 0 -12 -6 -15 -12 -3 -9 -8
-10 -15 -3 -6 7 -3 17 11 30 11 11 17 14 13 8 -11 -19 9 -16 25 4 10 11 10 14
2 9 -8 -4 -13 -2 -13 4 0 7 -7 9 -16 6 -9 -3 -12 -2 -9 5 4 6 13 8 21 5 10 -4
14 3 15 22 1 15 2 34 3 42 0 8 -3 18 -9 23 -6 4 -3 11 8 18 21 12 22 32 2 49
-8 7 -12 16 -9 21 3 5 3 9 -1 9 -3 0 -9 -10 -14 -22z"/>
<path d="M1533 2995 c4 -8 1 -17 -5 -21 -7 -4 -8 -3 -4 4 4 7 5 12 2 12 -6 0
-36 -55 -36 -65 0 -3 5 -3 10 0 6 3 10 1 10 -4 0 -6 -5 -11 -10 -11 -7 0 -7
-6 0 -20 9 -16 8 -20 -6 -20 -11 0 -15 -6 -11 -20 3 -11 1 -20 -4 -20 -5 0 -9
-9 -9 -20 0 -14 5 -18 18 -13 15 6 16 5 2 -12 -11 -14 -12 -19 -2 -22 6 -3 12
-9 12 -14 0 -6 -4 -8 -9 -5 -4 3 -13 -5 -19 -19 -19 -42 -58 -60 -131 -59 -38
1 -48 -1 -23 -3 23 -2 42 -8 42 -12 0 -5 13 -8 29 -7 16 1 27 3 25 5 -2 3 10
11 27 18 17 7 28 17 24 23 -4 6 -1 9 7 8 8 -2 12 4 10 15 -2 10 3 17 13 17 22
0 5 -30 -36 -64 -17 -14 -26 -26 -20 -26 5 0 13 5 16 10 3 6 11 10 16 10 6 0
8 -4 5 -9 -9 -13 43 -6 57 8 9 9 8 11 -4 6 -14 -5 -17 1 -17 37 -1 42 -8 103
-12 103 -10 0 -3 56 7 59 15 6 18 -20 4 -28 -8 -5 14 -66 23 -66 2 0 2 21 1
46 -1 26 1 59 5 73 5 16 9 19 9 9 1 -21 21 -25 21 -4 0 7 3 28 7 46 5 27 3 32
-8 28 -10 -4 -15 1 -16 16 0 11 1 15 4 9 7 -18 23 -16 23 2 0 9 -10 15 -26 15
-19 0 -25 -4 -21 -15z"/>
<path d="M4493 2799 c9 -6 15 -14 12 -20 -4 -5 -1 -9 5 -9 6 0 8 -4 5 -10 -3
-5 3 -10 14 -10 11 0 22 -4 25 -9 3 -4 -5 -7 -18 -6 -16 2 -26 -3 -29 -15 -3
-12 0 -17 8 -13 8 2 18 -5 25 -16 9 -17 8 -21 -5 -21 -9 0 -13 5 -10 10 3 6 0
10 -7 10 -7 0 -14 -13 -15 -30 -1 -20 2 -28 8 -24 7 4 7 -1 0 -15 -14 -25 -9
-27 13 -6 13 14 15 13 14 -2 0 -10 3 -31 7 -48 9 -38 9 -54 0 -82 -5 -14 -3
-23 4 -23 5 0 8 8 5 18 -5 14 -4 14 4 2 8 -10 8 -18 0 -27 -7 -9 -7 -17 1 -27
9 -11 8 -15 -4 -20 -9 -3 -13 -2 -10 4 10 16 -11 11 -25 -6 -11 -12 -11 -15 0
-12 8 2 15 -6 17 -17 3 -17 2 -18 -7 -5 -9 12 -10 10 -4 -10 6 -23 6 -24 -11
-10 -17 14 -17 13 -8 -5 6 -11 8 -27 5 -35 -4 -12 -2 -13 9 -2 20 19 31 14 17
-7 -7 -11 -16 -17 -22 -14 -5 4 -7 -1 -3 -11 4 -10 7 -22 7 -27 0 -5 4 -9 10
-9 5 0 7 8 3 18 -5 14 -4 15 8 4 12 -11 11 -16 -6 -29 -19 -15 -19 -15 5 -8
21 7 23 6 13 -7 -12 -14 -8 -28 6 -28 4 0 8 30 9 68 2 37 5 78 6 92 2 14 -1
30 -6 36 -5 8 -3 14 7 18 10 4 13 11 8 18 -8 14 -12 42 -13 97 0 18 -4 39 -8
45 -9 14 -10 126 -1 126 9 0 4 58 -6 82 -3 9 -20 21 -37 27 -39 14 -48 14 -25
0z"/>
<path d="M0 2741 c0 -23 4 -41 8 -41 5 0 14 -17 20 -39 16 -50 16 -427 1 -436
-6 -4 -8 -14 -4 -22 3 -9 -1 -25 -8 -37 -16 -26 -23 -231 -8 -240 15 -10 23
28 11 58 -14 38 -13 106 1 86 9 -12 10 -10 5 9 -3 17 -2 21 6 13 6 -6 7 -19 3
-29 -11 -27 -15 -63 -6 -63 5 0 7 -18 6 -41 -2 -26 2 -42 11 -46 7 -2 10 -11
7 -19 -4 -10 0 -12 13 -7 18 6 18 5 -1 -17 l-20 -23 25 6 c23 5 23 5 7 -7 -16
-13 -16 -14 5 -20 18 -5 20 -8 9 -15 -12 -8 -13 -18 -2 -66 10 -43 10 -59 2
-65 -7 -3 -9 -14 -5 -23 3 -9 10 -14 15 -11 8 5 14 -18 10 -39 -1 -5 2 -6 6
-4 16 10 45 -21 39 -41 -7 -20 20 -59 32 -47 3 3 -3 12 -14 19 -10 8 -16 18
-12 21 4 4 14 0 23 -9 20 -20 13 -48 -10 -40 -9 4 -15 1 -15 -9 0 -8 7 -18 16
-21 8 -3 13 -2 10 3 -4 5 3 7 15 4 11 -3 17 -9 12 -12 -5 -3 -8 -13 -8 -21 1
-8 -3 -20 -8 -27 -5 -7 -4 -19 2 -30 10 -17 10 -17 11 0 0 23 45 20 45 -3 0
-8 4 -21 8 -27 5 -8 4 -13 -2 -13 -6 0 -11 5 -11 11 0 5 -6 7 -13 3 -9 -6 -9
-5 0 8 13 15 8 28 -11 28 -6 0 -4 -5 4 -10 10 -6 11 -10 3 -10 -17 0 -16 -25
2 -61 15 -28 42 -31 31 -3 -3 7 -1 16 5 19 5 4 8 1 7 -6 -2 -7 2 -13 9 -14 16
0 29 -15 14 -15 -7 0 -10 -4 -6 -9 3 -5 0 -13 -6 -17 -7 -4 -9 -3 -5 4 3 6 2
13 -3 16 -5 3 -11 -3 -14 -14 -3 -11 -1 -18 3 -15 4 3 14 -18 21 -45 9 -34 17
-49 26 -46 8 4 13 -3 13 -16 0 -12 3 -19 6 -16 12 13 43 -33 47 -69 l4 -38 1
38 c3 56 18 45 20 -14 0 -29 6 -57 13 -63 9 -8 10 -7 6 7 -4 10 0 29 9 42 15
23 14 27 -6 60 -12 19 -24 35 -26 35 -3 0 -2 -4 1 -10 3 -6 -1 -7 -10 -4 -11
5 -13 10 -5 19 7 9 6 16 -5 25 -12 10 -61 104 -66 128 0 4 -11 20 -23 37 -11
16 -26 43 -31 60 -8 24 -15 29 -35 27 -24 -3 -24 -3 -6 11 19 14 19 15 -2 65
-12 28 -22 58 -22 67 0 9 -9 19 -21 22 -16 5 -18 8 -7 15 9 7 8 8 -6 4 -19 -7
-46 9 -46 26 0 6 7 5 15 -2 9 -7 18 -10 22 -6 3 3 1 6 -7 6 -8 0 -9 4 -3 13
12 14 5 87 -8 87 -5 0 -8 3 -7 8 1 4 -1 16 -4 27 -4 11 -17 55 -29 97 -14 49
-26 73 -31 65 -5 -9 -8 -7 -8 5 0 9 5 20 10 23 12 7 5 87 -10 115 -6 10 -10
28 -10 40 0 16 -5 20 -15 16 -9 -3 -15 0 -15 9 0 8 6 14 13 13 9 -2 13 58 15
270 1 163 -1 271 -7 268 -5 -3 -11 1 -15 9 -3 8 0 15 7 15 8 0 8 3 1 8 -5 4
-10 18 -10 31 0 14 -5 26 -12 29 -8 2 -12 -9 -12 -37z"/>
<path d="M1331 2100 c-2 -3 -5 -18 -7 -35 -3 -16 -11 -33 -17 -37 -9 -6 -9 -8
-1 -8 17 0 25 -28 12 -36 -6 -4 -8 -3 -4 4 3 6 2 13 -2 16 -11 6 -9 -40 1 -50
11 -11 8 -36 -3 -29 -6 4 -7 -2 -1 -16 10 -29 31 -37 31 -13 0 29 18 3 22 -31
2 -21 14 -39 41 -59 27 -20 35 -31 26 -37 -7 -4 15 -6 49 -6 63 2 66 0 64 -41
-1 -12 3 -20 8 -17 6 4 10 2 10 -4 0 -5 -6 -11 -12 -14 -7 -2 6 -3 28 -3 30 0
40 4 37 13 -3 7 -9 13 -15 13 -5 0 -6 5 -2 11 4 7 14 0 25 -18 14 -21 19 -24
19 -10 0 10 5 15 10 12 6 -4 8 -10 6 -14 -3 -4 1 -8 9 -8 19 0 19 4 -5 29 -11
12 -20 16 -20 9 0 -7 -5 -9 -10 -6 -6 4 -8 10 -5 15 3 4 -2 11 -10 14 -9 3
-20 -3 -27 -14 -15 -24 -24 -25 -31 -6 -4 10 -1 13 7 10 8 -3 17 0 21 6 8 12
-13 42 -25 35 -4 -2 -29 15 -55 40 -27 24 -52 42 -57 39 -4 -3 -8 1 -8 9 0 16
-28 43 -36 35 -3 -3 2 -13 11 -21 19 -19 20 -34 1 -18 -9 7 -17 8 -20 2 -3 -5
-1 -12 4 -14 6 -3 5 -4 -1 -3 -7 1 -13 10 -15 19 -1 9 2 15 7 11 5 -3 9 0 9 5
0 6 -4 11 -8 11 -5 0 -9 7 -9 15 0 8 5 11 11 8 6 -3 4 2 -5 12 -14 14 -21 15
-38 6 -18 -10 -21 -9 -21 8 0 11 -5 21 -12 23 -9 3 -9 6 0 12 7 4 12 2 12 -4
0 -6 4 -8 10 -5 6 4 7 -1 3 -12 -5 -15 -4 -16 8 -5 12 11 12 15 -1 25 -9 8
-14 24 -12 45 3 31 -2 93 -7 82z"/>
<path d="M3190 1630 c0 -4 17 -16 38 -28 42 -24 134 -116 125 -126 -4 -3 -1
-6 5 -6 6 0 14 -10 18 -22 3 -12 14 -30 23 -40 10 -10 28 -38 40 -63 12 -25
29 -45 37 -45 8 0 12 5 9 10 -4 6 8 10 27 11 30 1 30 2 8 8 -14 3 -26 15 -28
26 -5 27 -9 30 -25 16 -12 -9 -18 -6 -31 14 -9 14 -12 25 -7 25 5 0 13 -9 16
-21 9 -27 16 -20 8 9 -3 13 -14 22 -27 23 -19 1 -19 2 -2 6 12 3 25 -2 33 -13
12 -16 13 -16 13 -1 0 9 -11 19 -25 23 -19 5 -24 11 -20 25 4 11 2 19 -4 19
-6 0 -11 7 -11 16 0 13 -7 15 -30 11 -16 -4 -32 -3 -35 2 -2 5 3 8 12 7 12 -1
17 9 18 40 1 40 1 40 -34 39 -20 -1 -40 -3 -46 -5 -17 -5 -65 19 -65 33 0 7
-9 13 -20 13 -11 0 -20 -3 -20 -6z"/>
<path d="M4359 1575 c-1 -11 -3 -30 -4 -42 -1 -13 2 -23 6 -23 5 0 9 -4 9 -10
0 -5 -3 -9 -7 -7 -5 1 -19 -9 -32 -22 -19 -19 -21 -25 -10 -32 12 -7 12 -9 0
-9 -7 0 -11 -6 -8 -13 3 -8 -1 -14 -9 -14 -7 0 -11 4 -8 9 6 10 -7 10 -22 0
-6 -4 -10 -19 -8 -35 2 -19 -1 -25 -9 -21 -9 5 -9 4 -1 -5 19 -21 5 -53 -21
-49 -18 4 -21 1 -17 -14 3 -14 0 -18 -19 -15 -13 2 -38 -5 -57 -16 -34 -20
-34 -20 -12 -32 13 -7 18 -14 12 -16 -7 -3 -7 -13 2 -33 l11 -28 15 28 c8 16
21 33 28 37 7 5 10 17 7 28 -5 13 -2 19 10 19 10 0 13 -5 9 -12 -4 -7 2 -5 14
6 11 10 24 31 27 46 3 16 13 34 21 40 7 7 12 16 9 20 -3 5 3 16 12 26 10 10
18 20 18 23 0 3 13 25 29 49 16 23 26 45 23 49 -4 3 1 12 11 20 14 12 14 14 1
10 -9 -3 -16 1 -16 9 0 10 7 12 21 9 21 -6 21 -6 1 6 -11 7 -23 17 -27 23 -5
7 -8 3 -9 -9z"/>
<path d="M2454 1566 c-3 -8 -15 -12 -27 -10 -15 3 -13 1 6 -7 15 -6 25 -14 22
-19 -3 -5 5 -12 17 -17 33 -11 197 -10 202 2 3 6 8 6 13 -1 4 -6 23 -10 40 -9
24 1 30 -1 23 -10 -10 -12 -4 -25 12 -25 5 0 7 4 3 9 -3 5 -1 12 4 15 5 3 11
-8 15 -25 3 -17 10 -28 16 -24 7 4 7 13 0 26 -6 10 -7 19 -3 19 5 0 13 -10 18
-22 13 -28 80 -37 71 -9 -4 11 -1 10 10 -4 l16 -20 -4 20 c-4 26 -27 44 -55
45 -26 0 -27 -3 -13 -31 7 -13 7 -19 1 -19 -6 0 -13 11 -17 24 -4 16 -16 26
-37 31 -18 4 -35 7 -39 6 -5 0 -8 4 -8 10 0 5 -4 7 -10 4 -5 -3 -10 -2 -10 3
0 6 -16 10 -35 9 -19 -1 -35 -5 -35 -10 0 -6 -5 -6 -12 0 -14 10 -43 9 -72 -3
-12 -4 -17 -4 -13 2 3 6 -7 18 -24 28 -16 9 -29 14 -29 9 0 -4 -5 -1 -10 7 -8
13 -10 12 -10 -4 0 -13 5 -16 17 -12 15 6 15 4 -2 -14 -19 -21 -30 -27 -20
-10 3 6 1 10 -6 10 -6 0 -9 8 -6 20 6 23 -1 27 -9 6z"/>
<path d="M521 1551 c-9 -6 -10 -11 -3 -15 6 -4 9 -12 6 -19 -3 -8 7 -26 21
-41 14 -15 25 -33 24 -39 -3 -27 2 -37 19 -38 10 0 12 -3 4 -6 -13 -5 -7 -23
9 -23 6 0 7 5 4 10 -3 6 -1 10 4 10 14 0 14 -17 1 -25 -13 -8 -1 -35 15 -35 8
0 17 -4 20 -10 4 -6 -1 -7 -11 -3 -12 4 -15 3 -10 -5 4 -7 15 -12 24 -13 11 0
13 -2 4 -6 -10 -4 -9 -9 4 -24 9 -11 22 -29 28 -42 11 -21 56 -34 56 -16 0 9
-16 13 -34 10 -5 -1 -3 5 4 14 11 13 15 13 22 3 5 -9 7 -6 5 9 -2 12 -7 26
-12 30 -4 5 -5 3 -2 -3 4 -7 0 -15 -9 -18 -26 -10 -34 -7 -33 12 0 10 3 12 6
5 2 -7 9 -13 14 -13 5 0 3 13 -6 30 -8 16 -15 38 -15 48 0 10 -11 24 -25 30
-27 12 -29 33 -5 44 12 5 12 7 -2 7 -10 1 -18 7 -18 14 0 8 -3 7 -9 -3 -6 -8
-7 -18 -5 -22 8 -13 -10 -9 -31 5 -14 11 -15 16 -5 22 9 6 11 4 5 -5 -5 -8 -3
-11 5 -8 19 6 24 28 7 28 -8 0 -18 7 -21 16 -3 8 -11 12 -17 8 -8 -4 -9 -3 -5
4 4 7 2 12 -4 12 -6 0 -8 5 -5 10 4 7 14 2 26 -11 14 -17 22 -20 31 -11 8 8 6
15 -6 27 -9 9 -16 11 -16 5 0 -6 -4 -9 -9 -5 -6 3 -8 15 -6 27 3 11 1 17 -3
14 -4 -4 -7 -13 -7 -18 0 -6 -5 -13 -12 -15 -7 -3 -10 5 -9 21 2 14 3 26 2 26
0 0 -7 -4 -15 -9z"/>
<path d="M4109 1171 c9 -6 10 -11 2 -15 -6 -4 -9 -12 -5 -17 10 -17 -28 -39
-49 -28 -9 6 -17 6 -16 2 3 -20 -2 -27 -12 -13 -9 13 -10 13 -6 0 2 -9 16 -15
35 -15 18 0 32 -3 32 -6 0 -11 -27 -18 -52 -13 -21 4 -21 4 -3 -5 23 -11 14
-14 -32 -11 -20 1 -33 -3 -33 -10 0 -7 -7 -10 -14 -7 -10 4 -13 1 -9 -9 7 -18
19 -18 27 1 7 20 53 20 53 0 0 -11 -4 -12 -14 -3 -7 6 -16 8 -20 4 -3 -3 -1
-6 5 -6 7 0 12 -7 12 -16 0 -11 -8 -14 -32 -12 -34 3 -34 3 -37 -52 -1 -22 -3
-23 -12 -7 -11 19 -29 23 -29 7 0 -13 -50 -65 -70 -73 -12 -4 -11 -6 3 -6 10
-1 15 -5 12 -11 -3 -5 -2 -10 4 -10 16 0 22 18 9 24 -7 3 -3 3 9 0 18 -4 22
-2 17 10 -3 9 -1 16 6 16 6 0 8 -5 5 -10 -13 -21 26 -22 41 -1 8 11 22 21 30
21 20 0 18 16 -3 24 -14 6 -15 9 -4 15 16 10 16 22 -1 32 -7 5 -8 9 -3 9 6 0
17 -5 25 -10 8 -5 10 -10 4 -10 -6 0 -11 -7 -11 -15 0 -19 8 -19 33 1 10 8 13
12 5 8 -8 -4 -6 4 6 22 11 16 28 41 37 57 9 15 21 27 27 27 6 0 21 12 33 27
32 41 27 93 -9 93 -5 0 -4 -4 4 -9z"/>
<path d="M3725 787 c9 -4 13 -13 9 -19 -4 -7 -10 -5 -16 3 -8 11 -9 11 -5 -1
2 -8 10 -14 16 -12 6 1 11 -4 11 -11 0 -8 -7 -14 -15 -14 -8 0 -15 5 -15 11 0
7 -3 7 -8 1 -4 -5 -23 -10 -42 -10 -19 0 -35 -4 -35 -10 0 -5 -4 -16 -9 -24
-6 -9 -5 -12 1 -8 6 4 14 0 17 -9 9 -24 7 -31 -4 -14 -8 12 -10 11 -10 -7 0
-12 -4 -24 -9 -27 -5 -4 -7 3 -4 14 5 17 0 20 -27 20 -27 0 -32 -3 -27 -20 3
-11 0 -20 -6 -20 -6 0 -7 -3 -4 -7 9 -8 -12 -33 -27 -33 -6 0 -3 6 6 13 11 9
14 18 7 28 -7 11 -9 11 -9 -3 0 -10 -3 -18 -6 -18 -4 0 -13 8 -20 18 -13 16
-14 16 -8 0 7 -22 -11 -24 -20 -3 -3 8 -11 15 -18 15 -9 0 -9 -3 2 -11 11 -8
8 -9 -14 -4 -26 6 -27 5 -12 -10 9 -9 22 -15 29 -12 6 2 20 0 31 -5 15 -8 16
-12 5 -19 -7 -4 -18 -4 -24 0 -5 5 -20 12 -31 15 -19 6 -22 3 -20 -18 0 -13 4
-22 9 -19 4 2 7 0 7 -6 0 -19 -19 -21 -29 -4 -6 10 -11 13 -11 8 0 -6 5 -16
12 -23 6 -6 8 -15 3 -19 -4 -5 -10 -2 -12 5 -3 6 -10 9 -16 5 -6 -4 -8 0 -4
10 3 9 1 19 -6 23 -7 4 -9 3 -4 -1 4 -5 0 -17 -10 -27 -10 -12 -12 -18 -4 -18
7 0 9 -4 6 -10 -11 -18 35 -10 54 9 11 11 23 16 27 13 4 -4 3 -1 -1 7 -6 11
-4 13 8 8 10 -4 22 1 30 13 8 11 17 17 20 13 4 -3 7 -1 7 5 0 7 6 12 13 12 7
0 22 8 33 18 11 10 25 17 33 14 16 -5 82 58 74 71 -4 6 0 8 9 4 9 -3 24 2 34
12 11 9 24 19 29 20 23 7 53 49 42 60 -7 7 -3 8 12 4 11 -3 21 -1 21 5 0 6
-19 10 -45 9 -30 -1 -40 -4 -30 -10z"/>
<path d="M3321 552 c3 -20 -3 -32 -16 -32 -8 0 -15 -4 -15 -10 0 -5 6 -7 14
-4 8 3 17 0 22 -7 4 -7 3 -10 -3 -6 -6 4 -18 -2 -28 -13 -10 -11 -21 -18 -25
-15 -16 10 -60 13 -66 4 -3 -5 -11 -6 -17 -2 -17 10 -47 11 -41 1 3 -4 1 -8
-5 -8 -5 0 -12 4 -16 9 -3 6 -14 9 -25 8 -10 -1 -17 -3 -15 -6 3 -2 -3 -14
-12 -25 -16 -18 -15 -17 11 2 16 13 32 19 35 15 4 -4 11 -12 16 -17 6 -6 4 -7
-6 -4 -19 7 -32 0 -47 -27 -6 -11 -12 -15 -12 -10 0 15 -120 11 -130 -5 -4 -7
-13 -10 -19 -6 -7 5 -9 1 -5 -9 5 -11 2 -14 -10 -9 -9 3 -16 9 -16 13 0 4 -7
8 -14 8 -8 0 -14 -4 -13 -8 1 -4 -2 -7 -8 -7 -5 0 -9 3 -8 7 1 4 -14 7 -34 8
-21 0 -30 -2 -23 -7 7 -5 19 -6 26 -3 8 3 11 -2 10 -14 -2 -10 -11 -19 -22
-21 -14 -2 -16 -1 -6 6 11 7 11 10 -3 15 -9 4 -13 3 -10 -2 3 -5 1 -12 -5 -16
-5 -3 -10 0 -10 8 0 8 -7 20 -15 27 -10 9 -15 9 -15 1 0 -6 4 -11 10 -11 9 0
11 -46 2 -63 -2 -4 -11 2 -21 14 -15 19 -18 20 -30 5 -12 -14 -11 -16 5 -17
18 0 18 -1 -1 -10 -15 -6 -10 -8 20 -4 22 2 46 4 54 5 7 0 11 6 7 15 -3 10 1
15 12 15 10 0 23 5 30 12 9 9 15 9 25 -1 8 -10 8 -12 0 -7 -6 3 -15 1 -18 -4
-5 -8 9 -10 41 -8 31 2 49 8 52 18 4 12 2 13 -9 4 -19 -15 -47 -14 -53 3 -4
10 -1 11 14 3 25 -13 39 -13 20 1 -13 9 -13 10 1 6 9 -3 26 3 37 13 19 18 32
17 32 -2 0 -5 -4 -7 -8 -4 -15 9 -31 -9 -22 -24 8 -12 10 -11 10 5 0 17 2 17
10 5 6 -9 10 -11 10 -3 0 7 7 10 15 7 15 -6 22 11 8 19 -5 2 -1 2 7 -1 8 -2
23 -7 33 -9 9 -3 17 0 17 6 0 7 -4 10 -8 7 -4 -2 -14 0 -22 5 -11 7 -8 8 10 5
14 -3 29 -5 33 -5 5 -1 5 -5 2 -11 -3 -5 1 -10 10 -10 9 0 13 4 10 10 -3 5 0
8 7 5 7 -3 20 0 28 5 13 9 12 12 -5 25 -20 16 -20 16 0 13 11 -2 26 -7 32 -11
7 -5 21 -3 30 2 14 8 15 10 3 11 -13 0 -13 1 0 10 20 13 33 13 25 0 -6 -9 4
-8 43 7 9 3 22 7 27 7 6 1 22 8 37 15 20 10 26 20 23 40 -1 14 2 29 7 32 5 3
3 9 -6 12 -9 4 -15 3 -15 -1z"/>
<path d="M3744 352 c2 -4 0 -14 -5 -22 -8 -13 -11 -13 -23 2 -12 17 -16 17
-55 1 -26 -10 -40 -21 -37 -29 3 -8 1 -16 -4 -19 -6 -4 -10 2 -11 12 0 17 -1
17 -8 -1 -4 -11 -19 -20 -34 -22 -18 -2 -25 1 -21 8 4 7 2 8 -5 4 -6 -4 -9
-12 -6 -17 4 -5 1 -9 -4 -9 -22 0 -27 -2 -78 -31 -29 -17 -53 -27 -53 -22 0 4
-5 1 -10 -7 -5 -8 -14 -16 -20 -16 -5 -1 -14 -2 -20 -3 -5 0 -10 -5 -10 -10 0
-10 26 -9 36 2 4 4 14 1 23 -6 14 -11 15 -10 1 7 -14 18 -13 19 1 14 9 -4 22
-1 29 5 10 9 10 6 0 -13 -13 -25 -13 -25 8 -6 12 10 19 22 17 26 -3 4 2 14 11
21 14 11 18 10 30 -6 9 -11 14 -14 14 -6 0 11 3 11 17 0 15 -12 16 -12 10 3
-8 21 15 40 39 32 18 -6 17 -5 -1 10 -15 13 -16 16 -4 13 9 -3 22 0 29 6 9 9
11 8 8 -7 -2 -13 4 -20 20 -22 12 -2 22 0 22 6 0 5 8 6 18 3 15 -6 15 -5 3 11
-10 12 -17 14 -25 6 -16 -16 -30 -12 -16 5 14 16 48 11 63 -9 6 -7 7 -4 3 6
-7 22 10 33 18 12 7 -19 26 -9 26 14 0 9 5 24 10 32 7 12 12 12 22 2 6 -6 19
-12 28 -11 9 0 6 4 -7 9 -13 5 -23 14 -23 20 0 5 -7 10 -16 10 -8 0 -13 -4
-10 -8z"/>
<path d="M1638 121 c13 -11 23 -24 22 -28 0 -13 62 -10 67 4 7 17 24 17 21 1
-2 -8 6 -12 21 -10 17 3 21 0 15 -10 -6 -10 -4 -10 9 1 15 12 17 11 17 -9 0
-15 4 -20 15 -17 8 4 17 1 21 -4 3 -6 17 -8 31 -4 21 5 23 4 11 -9 -7 -7 -17
-11 -23 -8 -5 2 -4 -1 3 -9 7 -8 26 -14 42 -15 22 -1 27 3 23 15 -4 15 -4 15
9 0 8 -11 20 -14 33 -9 20 7 20 7 0 13 -11 4 -3 4 18 1 20 -3 37 -1 37 3 0 5
9 9 20 9 25 0 17 -8 -22 -21 -25 -9 -12 -11 76 -11 58 0 106 3 106 8 0 6 -65
11 -96 7 -4 0 -10 5 -15 13 -5 8 -33 14 -79 15 -98 4 -120 7 -120 16 0 5 -4 5
-10 2 -5 -3 -10 -1 -10 6 0 7 -3 10 -6 6 -4 -3 -21 0 -39 8 -19 7 -36 11 -39
7 -3 -3 -6 0 -6 6 0 6 -7 9 -17 5 -11 -4 -14 -3 -9 6 5 8 -1 11 -21 11 -31 -1
-68 4 -105 15 l-23 6 23 -20z"/>
</g>
</svg>
